<svg xmlns="http://www.w3.org/2000/svg"  viewBox="0 0 72 72" width="64px" height="64px" fill-rule="evenodd" clip-rule="evenodd" baseProfile="basic"><path fill="#060000" fill-rule="evenodd" d="M36,13c13.25,0,24,11.369,24,23.5c0,13-9.5,23-21,24.25V43h4	l2-5.029L39,38v-4.73c0-1.254,1.016-2.27,2.27-2.27c0.902,0,1.73,0,1.73,0v-4h-4.255c-1.524,0-2.985,0.605-4.062,1.683	C33.605,29.76,33,31.221,33,32.745c0,2.653,0,5.226,0,5.226h-4V43h4v17.75c-11.5-1.25-21-11-21-24.25C12,24.369,22.5,13,36,13z" clip-rule="evenodd"/></svg>